<svg id="Layer_1" data-name="Layer 1" xmlns="http://www.w3.org/2000/svg" viewBox="0 0 240.94 368.5"><defs><style>.cls-1{fill:#a44c6e;}.cls-2,.cls-3{fill:#baa483;}.cls-2{fill-rule:evenodd;}</style></defs><title>Al Mana logo_Uncoated Pantone_FINAL</title><path class="cls-1" d="M169.81,224.38a147.61,147.61,0,0,0,6.9-20q5.73-21.8-.46-41a109,109,0,0,0-20-35.95q-8.88-10.55-25.14-32.38-15.85-23.37-10.36-44.24a33.13,33.13,0,0,1,6.66-12.86,49,49,0,0,0-3.66,9.54q-6.14,23.34,16,49.67,3.76,3.78,10.83,11.87,42.34,48.71,31.57,89.7a97.91,97.91,0,0,1-10.79,26.05Z"/><path class="cls-2" d="M71.66,148.34a4.47,4.47,0,0,0-2-1.22,25,25,0,0,0-2.48-.54l-.12-1.29-.49-.05a50.22,50.22,0,0,0-.33,6.35,6.08,6.08,0,0,0,.23,1.3v0a2.31,2.31,0,0,0,1.34,1.77,2.53,2.53,0,0,0,.88.32c1.13.11,3-1.37,3.4-2.41s.3-3.32-.44-4.28m-.46,2.93a10.15,10.15,0,0,1-1.31,1,2.18,2.18,0,0,1-.82.21l-1.77.23-.55-2,.12-1.47s1.91.44,3.09.82c.74.24,1.69.74,1.23,1.29"/><path class="cls-2" d="M103.37,217.87,103,218c-.18.05-.2.15-.23,1-.12,4-1.92,18.16,4.45,18,2.92-.06,3-4.49,2.7-7.77a2,2,0,0,0-.35-1.18c-1-.8-.72,2.46-1,3.48-.35,1.41-2.36,1-3.48,0a5.94,5.94,0,0,1-1.62-3.25c-.51-3-.11-10.36-.11-10.36"/><path class="cls-2" d="M112.3,213.28l4.07,1.32c.7.22.79.25,1,.22.7-.12.17-.21.17-1.13,0-.16.18-.26.38-.23,1,.18,4.82,4.53,5.35,5.28,1.39,2,3,5.26,3.82,4.31a2.27,2.27,0,0,0,.29-1.15c.23-3.14-1.41-12.72-1.08-14.46.42-2.21,1-2.45,3.18-1.74a2.72,2.72,0,0,1,1.26.69,15.8,15.8,0,0,1,1.54,1.9l.35-5.17a27.87,27.87,0,0,0-3.63-2.25c-1.93-.77-3.5,1.56-4,3.4a11,11,0,0,0-.3,3.4A89,89,0,0,0,126.29,218s-2.08-3-3.51-4.85c-1.91-2.44-8.12-8.12-10.57-5a1.47,1.47,0,0,0-.32.92,27,27,0,0,0,.41,4.21"/><path class="cls-2" d="M90.24,116.66s1-.46,1.79-.75a21.17,21.17,0,0,1,4.37-1c.43,0,.94,0,.94,0L90.47,122l5.31-2.14a2,2,0,0,0,.49-.24,5.71,5.71,0,0,0,1.08-1.52c1-1.87,2.89-7.47,1.38-8-.94-.36-4.52.46-5.6.89-.84.33-2,.85-2,.85Z"/><path class="cls-2" d="M85.63,104.79l12.6-10.21a.62.62,0,0,0,.28-.42c.19-.63.11-.89.05-.92s-5,3.66-6.45,4.85c-2.74,2.27-5.78,4.85-6.09,5.23a.94.94,0,0,0-.2.42c-.09.35-.19,1-.19,1"/><path class="cls-2" d="M135.51,179.47s.68-.31,1.2-.5a14.08,14.08,0,0,1,2.92-.69l.63,0L135.66,183l3.55-1.43a1.36,1.36,0,0,0,.32-.16,3.82,3.82,0,0,0,.72-1c.65-1.25,1.93-5,.92-5.36-.62-.24-3,.3-3.74.59-.56.22-1.31.57-1.31.57Z"/><path class="cls-2" d="M131.17,177.24l8.41-6.82a.42.42,0,0,0,.19-.28c.12-.42.07-.59,0-.61s-3.34,2.44-4.31,3.24c-1.83,1.51-3.86,3.23-4.06,3.49a.62.62,0,0,0-.13.28c-.06.24-.13.7-.13.7"/><path class="cls-2" d="M121,233.2,133.55,223a.63.63,0,0,0,.28-.42c.19-.63.11-.89.05-.92s-5,3.66-6.45,4.85c-2.74,2.27-5.78,4.85-6.09,5.23a.94.94,0,0,0-.2.42c-.09.35-.19,1-.19,1"/><path class="cls-1" d="M81.49,125.88s7.35-.07,8.53.16,1.39.1,1.41,3.61a86.14,86.14,0,0,1-.21,8.8c-.2.66-.79.54-1.33.48a27.28,27.28,0,0,0-5.22-.15c-2.6.19-3.22-.13-3.43-.45s-.26-9.27-.2-10.77.08-1.37.46-1.68"/><path class="cls-1" d="M91.77,172.59s4.55-1,7.12-3.74a17.36,17.36,0,0,0,4.06-8.71c.17-1.81.46-1.74-.84-4.06s-5.93-10.63-6.18-11.92-2.5-18.75-2.42-19.81.38-1.88,1.57-.15,5.45,8.26,6.48,12.14,4,12.55,4.41,22.13-1.26,14.36-4.76,19.12-9.54,7.93-12.71,6.62-3.15-1.57-3.67-.61-6.75,13.46-7.46,27,2.23,22.26,7.31,28.53a23.25,23.25,0,0,0,26.94,6.25c11.25-4.68,20.9-14.4,24.39-24s6.12-18.09,6.5-26.34-.17-10.29.93-10.4,2.43,6.1,2.45,14.4.64,21.26-5,36.78-12.56,25.44-23.45,30.77a24.13,24.13,0,0,1-28.84-6c-6-7.26-9.45-16.32-12.11-28.16a115.36,115.36,0,0,1-2.39-30.79c.32-8.84,4.85-24,5-24.87.55-3.21.34-6-2.34-6.55s-6.5,3.29-7.54,5.41-1.45,1.68-1.65.68-.95-14.51,7.3-19.21c7-3.94,14-4.37,16.86-.34,3.46,4.91.29,15.16,0,15.79"/><path class="cls-1" d="M165.53,180.09q-3.5-12.9-16.13-28.53-.49-.62-20.55-23a124.53,124.53,0,0,1-18.4-26.17q-7-13.48-2.64-29.91c2.39-9.11,5.95-18.08,11.52-24.71-7.78,6.27-12.68,16-15.59,27.08q-6.41,24.41,11.69,49.19l34.85,41q18.19,24.47,12,48a44.24,44.24,0,0,1-12.85,21.41,36.7,36.7,0,0,1-9.95,7c-.74,1.94-3,6.34-4.62,9.51A42.09,42.09,0,0,0,150.1,240a64.45,64.45,0,0,0,14.77-27.47Q169.63,194.47,165.53,180.09Z"/><path class="cls-1" d="M73.85,196.83c-.51-.31-.53-.27-1.33-.76l-.39-.37S41.23,169.58,85.79,84c0,0-54.75,77.94-16.57,128.44.21.3.43.58.65.86l.11.15h0a18.28,18.28,0,0,0,3.52,3.39A107.92,107.92,0,0,1,73.85,196.83Z"/><path class="cls-1" d="M138.31,155.12c-.82-1-5.38-2.69-7.65-2.8-3-.15-3.5,1.18-5.44,4.34l-.84,2.33c-1.06,2.21-3.11,8.4-7.67,16.64-4.33,7.83-27.46,24.68-36.85,23.84a62.27,62.27,0,0,0-1.78,19.69,15.32,15.32,0,0,0,11.32-1c6.64-3.43,26.72-28.13,29.84-38.25s13-8.7,14.55-8.87,4.41-2.18,6-6.59A10.3,10.3,0,0,0,138.31,155.12Z"/><path class="cls-3" d="M68.59,297.95a.85.85,0,0,0-.82-.85.84.84,0,0,0,0,1.69A.75.75,0,0,0,68.59,297.95Z"/><path class="cls-3" d="M29.47,300.51c-.87,0-1,0-1.9,0l-.08.09c-.19.69-.21.76-.72,2.39l-1.6,5.25-1.37-5.09c-.25-.86-.47-1.59-.69-2.6l-.09-.09c-.79,0-1,0-1.94,0l-.08.09c0,1.11,0,1.25-.14,3.49-.09,1.5-.14,3-.26,4.5l-.08.77.06.09a12,12,0,0,1,1.21,0l.06-.09c0-1,0-1.31.06-2.8L22,304.3c0-1.26.05-1.54.06-2.8.18.81.23,1,.73,2.81l.5,1.76c.13.42.68,2.29.78,2.68l.19.63.08.09c.72,0,.78,0,1.46,0l.08-.09c.29-1,.44-1.46.91-2.86l.58-1.83c.53-1.76.72-2.43.92-3.16,0,.48,0,2.41,0,3.3l0,1.34c0,1.39.05,1.83,0,3.25l.08.09c.66,0,.73,0,1.36,0l.06-.09c-.16-2.92-.26-5.83-.33-8.76Z"/><path class="cls-3" d="M34.4,302.73a3.15,3.15,0,0,0-2.34.88,3.6,3.6,0,0,0-.87,2.56,3.68,3.68,0,0,0,.87,2.57,3,3,0,0,0,2.26.84,2.93,2.93,0,0,0,2.18-.77,3,3,0,0,0,.82-1.52,5.44,5.44,0,0,0,.11-1.22,3.77,3.77,0,0,0-.77-2.43A3,3,0,0,0,34.4,302.73Zm1.36,5.06a1.53,1.53,0,0,1-1.44.84,1.69,1.69,0,0,1-.74-.16c-1-.5-1-1.78-1-2.28a3.34,3.34,0,0,1,.38-1.78,1.56,1.56,0,0,1,1.39-.73,1.47,1.47,0,0,1,1.35.72,4,4,0,0,1,.37,1.71A3.87,3.87,0,0,1,35.76,307.79Z"/><path class="cls-3" d="M44.43,306.84v-1.47a5.75,5.75,0,0,0-.09-1.25,1.69,1.69,0,0,0-1-1.2,2.13,2.13,0,0,0-.84-.15,4.07,4.07,0,0,0-2.26.78c0-1.36,0-2.72.08-4.07l-.08-.09c-.57.13-.77.16-1.37.26l-.06.08c0,.57.08.93.1,2s0,2.12,0,3.18c0,2.42,0,3.55-.06,4.45l.06.09c.62,0,.77,0,1.35-.05l.06-.08c-.08-1.47-.1-2.62-.09-4.81a2.88,2.88,0,0,1,1.69-.71,1.1,1.1,0,0,1,1.13,1,3.87,3.87,0,0,1,.06.86V307c0,.65,0,1.32,0,2v.42l.09.09c.58,0,.66,0,1.26-.05l.08-.08c-.05-.69-.05-.87-.08-1.93Z"/><path class="cls-3" d="M51,305.6a8.44,8.44,0,0,0-.09-1.57,1.94,1.94,0,0,0-2.1-1.3,6.49,6.49,0,0,0-2.18.42l-.08.08c0,.26,0,.34,0,.92l.1.06a4.49,4.49,0,0,1,1.91-.48,1.08,1.08,0,0,1,1,.47,1.57,1.57,0,0,1,.11.78l-.21,0c-2.27.26-3.68.81-3.68,2.49A2,2,0,0,0,48,309.6a2.7,2.7,0,0,0,1.76-.64v.45l.05.08c.58,0,.68,0,1.27-.05l.06-.06a23.68,23.68,0,0,1-.08-2.52ZM49.72,308a2,2,0,0,1-1.37.55,1.11,1.11,0,0,1-1.2-1.15c0-1.12,1.18-1.3,2.46-1.49l.11,0Z"/><path class="cls-3" d="M62.27,305.36c0-1.08,0-1.56-.6-2.13a1.93,1.93,0,0,0-1.35-.5,4.17,4.17,0,0,0-2.42.91,1.69,1.69,0,0,0-1.63-.91,3.59,3.59,0,0,0-2.13.81l0-.64-.08-.09c-.37.08-.71.15-1.35.25l-.06.09a28.74,28.74,0,0,1,.14,3.74c0,1.3,0,2-.05,2.52l.08.08c.6,0,.66,0,1.31,0l.08-.09c-.05-.71-.09-1.32-.09-2.72v-2.15a2.6,2.6,0,0,1,1.59-.64,1,1,0,0,1,1.06.91,5,5,0,0,1,.09,1.28c0,.79,0,2.24-.06,3.38l.08.08c.59,0,.67,0,1.32,0l.06-.09c-.06-.88-.08-1.32-.08-2.61V306c0-.37,0-1.27-.05-1.54a2.6,2.6,0,0,1,1.61-.64,1.06,1.06,0,0,1,1.11,1,6.66,6.66,0,0,1,.06,1.36c0,1,0,2.17,0,3.21l.08.08c.58,0,.68,0,1.28,0l.08-.09c-.06-1.13-.08-1.49-.08-2.92Z"/><path class="cls-3" d="M73.57,305.36c0-1.08,0-1.56-.6-2.13a1.93,1.93,0,0,0-1.35-.5,4.17,4.17,0,0,0-2.42.91,1.69,1.69,0,0,0-1.62-.91,3.59,3.59,0,0,0-2.13.81l0-.64-.08-.09c-.37.08-.71.15-1.35.25l-.06.09a28.78,28.78,0,0,1,.14,3.74c0,1.3,0,2-.05,2.52l.08.08c.6,0,.66,0,1.31,0l.08-.09c-.05-.71-.09-1.32-.09-2.72v-2.15a2.6,2.6,0,0,1,1.59-.64,1,1,0,0,1,1.06.91,5,5,0,0,1,.09,1.28c0,.79,0,2.24-.06,3.38l.08.08c.59,0,.67,0,1.32,0l.06-.09c-.06-.88-.08-1.32-.08-2.61V306c0-.37,0-1.27-.05-1.54a2.6,2.6,0,0,1,1.61-.64,1.06,1.06,0,0,1,1.11,1,6.66,6.66,0,0,1,.06,1.36c0,1,0,2.17,0,3.21l.08.08c.58,0,.68,0,1.28,0l.08-.09c-.06-1.13-.08-1.49-.08-2.92Z"/><path class="cls-3" d="M78.09,302.73c-1.65,0-3.06,1.15-3.06,3.49a3.08,3.08,0,0,0,3.36,3.38,4.11,4.11,0,0,0,2-.48l.08-.09c0-.49,0-.62.1-1.12l-.1-.06a3.18,3.18,0,0,1-.91.55,3.28,3.28,0,0,1-1.1.19,2,2,0,0,1-1.63-.68,2.46,2.46,0,0,1-.48-1.57c2.07,0,2.41,0,4.37,0l.09-.08a4,4,0,0,0-.68-2.66A2.63,2.63,0,0,0,78.09,302.73Zm-1.71,2.65A1.71,1.71,0,0,1,78,303.64a1.41,1.41,0,0,1,1.37,1,2.78,2.78,0,0,1,.13.74C78.38,305.37,77.9,305.39,76.38,305.37Z"/><path class="cls-3" d="M87.74,299.39c-.57.13-.69.15-1.34.26l-.06.08a28.2,28.2,0,0,1,.11,3c-.34,0-.47,0-.73,0a4,4,0,0,0-2.77.87,3.5,3.5,0,0,0-1.11,2.71c0,1.92,1.16,3.24,2.83,3.24a2.66,2.66,0,0,0,1.74-.63l0,.47.09.08c.58,0,.73,0,1.29,0l.06-.09c-.05-.87-.1-1.8-.1-3.76,0-1.26,0-4.38.1-6.14Zm-1.34,8.5a2.09,2.09,0,0,1-1.41.55,1.66,1.66,0,0,1-1.3-.57,2.38,2.38,0,0,1-.47-1.55,2.31,2.31,0,0,1,2.56-2.57c.26,0,.42,0,.63,0C86.43,305.87,86.43,306.24,86.41,307.89Z"/><path class="cls-3" d="M100.29,300.6l-.06-.09-1.4,0-.06.09c.06.78.06,1.06.09,3.45-.59,0-1.12,0-2.28,0-.82,0-1.17,0-1.83,0,0-1.73,0-2.76,0-3.5l-.06-.09-1.4,0-.08.09c0,.76.08,1.36.08,3.06,0,3.82,0,4.46-.06,5.69l.08.09c.69,0,.73,0,1.42,0l.06-.09c-.06-.95-.1-1.79-.09-4.18l2.94,0h1.18c0,1.3,0,2.82-.06,4.23l.08.09c.71,0,.76,0,1.42,0l.08-.09c-.08-1.16-.13-2.09-.13-4.54C100.24,302.61,100.26,301.82,100.29,300.6Z"/><path class="cls-3" d="M106.95,305.6a8.44,8.44,0,0,0-.09-1.57,1.94,1.94,0,0,0-2.1-1.3,6.49,6.49,0,0,0-2.18.42l-.08.08c0,.26,0,.34,0,.92l.1.06a4.49,4.49,0,0,1,1.91-.48,1.08,1.08,0,0,1,1,.47,1.57,1.57,0,0,1,.11.78l-.21,0c-2.27.26-3.68.81-3.68,2.49a2,2,0,0,0,2.14,2.1,2.7,2.7,0,0,0,1.76-.64v.45l.05.08c.58,0,.68,0,1.27-.05l.06-.06a23.62,23.62,0,0,1-.08-2.52Zm-1.3,2.41a2,2,0,0,1-1.37.55,1.11,1.11,0,0,1-1.2-1.15c0-1.12,1.18-1.3,2.46-1.49l.11,0Z"/><path class="cls-3" d="M118.2,305.36c0-1.08,0-1.56-.6-2.13a1.93,1.93,0,0,0-1.35-.5,4.17,4.17,0,0,0-2.42.91,1.69,1.69,0,0,0-1.63-.91,3.59,3.59,0,0,0-2.13.81l0-.64-.08-.09c-.37.08-.71.15-1.35.25l-.06.09a28.71,28.71,0,0,1,.14,3.74c0,1.3,0,2-.05,2.52l.08.08c.6,0,.66,0,1.31,0l.08-.09c-.05-.71-.09-1.32-.09-2.72v-2.15a2.6,2.6,0,0,1,1.59-.64,1,1,0,0,1,1.06.91,5,5,0,0,1,.09,1.28c0,.79,0,2.24-.06,3.38l.07.08c.59,0,.67,0,1.32,0l.06-.09c-.06-.88-.08-1.32-.08-2.61V306c0-.37,0-1.27-.05-1.54a2.6,2.6,0,0,1,1.61-.64,1.06,1.06,0,0,1,1.11,1,6.64,6.64,0,0,1,.06,1.36c0,1,0,2.17,0,3.21l.08.08c.58,0,.68,0,1.28,0l.08-.09c-.06-1.13-.08-1.49-.08-2.92Z"/><path class="cls-3" d="M124.81,305.6a8.44,8.44,0,0,0-.09-1.57,1.94,1.94,0,0,0-2.1-1.3,6.49,6.49,0,0,0-2.18.42l-.08.08c0,.26,0,.34,0,.92l.1.06a4.49,4.49,0,0,1,1.91-.48,1.08,1.08,0,0,1,1,.47,1.57,1.57,0,0,1,.11.78l-.21,0c-2.27.26-3.68.81-3.68,2.49a2,2,0,0,0,2.14,2.1,2.7,2.7,0,0,0,1.76-.64v.45l.05.08c.58,0,.68,0,1.27-.05l.06-.06a23.61,23.61,0,0,1-.08-2.52Zm-1.3,2.41a2,2,0,0,1-1.37.55,1.11,1.11,0,0,1-1.2-1.15c0-1.12,1.18-1.3,2.46-1.49l.11,0Z"/><path class="cls-3" d="M132.12,299.39c-.57.13-.69.15-1.34.26l-.06.08a28.06,28.06,0,0,1,.11,3c-.34,0-.47,0-.73,0a4,4,0,0,0-2.77.87,3.5,3.5,0,0,0-1.11,2.71c0,1.92,1.16,3.24,2.83,3.24a2.66,2.66,0,0,0,1.74-.63l0,.47.09.08c.58,0,.73,0,1.29,0l.06-.09c-.05-.87-.1-1.8-.1-3.76,0-1.26,0-4.38.1-6.14Zm-1.34,8.5a2.09,2.09,0,0,1-1.41.55,1.66,1.66,0,0,1-1.3-.57,2.38,2.38,0,0,1-.47-1.55,2.31,2.31,0,0,1,2.56-2.57c.26,0,.42,0,.63,0C130.81,305.87,130.81,306.24,130.78,307.89Z"/><path class="cls-3" d="M141.68,300.81l-.06-.23-.09-.09c-.81,0-.92,0-1.8.05l-.1.09c-.37,1.21-.64,2-1.4,4.26q-.68,2-1.4,4.08a3.68,3.68,0,0,0-.14.39l.05.09c.63,0,.76,0,1.3,0l.09-.09c.3-1.12.38-1.42.74-2.61H142c.33,1.13.43,1.47.74,2.66l.09.09c.53,0,.81,0,1.46-.05l.05-.1c-.38-1.21-1-3.15-1.4-4.36S142.1,302.2,141.68,300.81Zm-1.29,4.91h-1.21l1.32-4.26,1.21,4.26Z"/><path class="cls-3" d="M146.62,299.48l-.08-.09c-.63.14-.76.16-1.37.26l-.06.08c.13,1.61.13,3.48.13,5.22,0,2.42,0,3.55-.06,4.45l.06.09c.59,0,.72,0,1.32-.05l.08-.08c-.06-1.2-.1-2.15-.1-4.91C146.53,302.79,146.53,301.13,146.62,299.48Z"/><path class="cls-3" d="M160.75,300.51c-.87,0-1,0-1.9,0l-.08.09c-.19.69-.21.76-.72,2.39l-1.6,5.25-1.37-5.09c-.25-.86-.47-1.59-.69-2.6l-.09-.09c-.79,0-1,0-1.94,0l-.08.09c0,1.11,0,1.25-.14,3.49-.09,1.5-.14,3-.26,4.5l-.08.77.06.09a12,12,0,0,1,1.21,0l.06-.09c0-1,0-1.31.06-2.8l.09-2.26c0-1.26.05-1.54.06-2.8.18.81.23,1,.73,2.81l.5,1.76c.13.42.68,2.29.78,2.68l.19.63.08.09c.72,0,.78,0,1.46,0l.08-.09c.29-1,.44-1.46.91-2.86l.58-1.83c.53-1.76.72-2.43.92-3.16,0,.48,0,2.41,0,3.3l0,1.34c0,1.39.05,1.83,0,3.25l.08.09c.66,0,.73,0,1.36,0l.06-.09c-.16-2.92-.26-5.83-.33-8.76Z"/><path class="cls-3" d="M167.6,305.6a8.44,8.44,0,0,0-.09-1.57,1.94,1.94,0,0,0-2.1-1.3,6.49,6.49,0,0,0-2.18.42l-.08.08c0,.26,0,.34,0,.92l.1.06a4.49,4.49,0,0,1,1.91-.48,1.08,1.08,0,0,1,1,.47,1.57,1.57,0,0,1,.11.78l-.21,0c-2.27.26-3.68.81-3.68,2.49a2,2,0,0,0,2.14,2.1,2.7,2.7,0,0,0,1.76-.64v.45l.05.08c.58,0,.68,0,1.27-.05l.06-.06a23.61,23.61,0,0,1-.08-2.52Zm-1.3,2.41a2,2,0,0,1-1.37.55,1.11,1.11,0,0,1-1.2-1.15c0-1.12,1.18-1.3,2.46-1.49l.11,0Z"/><path class="cls-3" d="M174.93,305.36a3.92,3.92,0,0,0-.19-1.54A1.71,1.71,0,0,0,174,303a2.18,2.18,0,0,0-1-.24,3.82,3.82,0,0,0-2.22.78v-.65l-.09-.09-1.34.25-.08.09c.06.84.15,1.91.15,3.93,0,.93,0,1.61,0,2.32l.06.09c.61,0,.71,0,1.32-.05l.08-.08c-.09-1.47-.11-2.62-.1-4.81a2.76,2.76,0,0,1,1.68-.71,1.1,1.1,0,0,1,1.13,1,11,11,0,0,1,.08,2.33c0,.62,0,1.23,0,1.85,0,.14,0,.28,0,.42l.09.09c.58,0,.66,0,1.26-.05l.08-.08c0-.48-.05-1-.09-2.52Z"/><path class="cls-3" d="M181.52,305.6a8.45,8.45,0,0,0-.09-1.57,1.94,1.94,0,0,0-2.1-1.3,6.5,6.5,0,0,0-2.18.42l-.08.08c0,.26,0,.34,0,.92l.1.06a4.49,4.49,0,0,1,1.92-.48,1.08,1.08,0,0,1,1,.47,1.57,1.57,0,0,1,.11.78l-.21,0c-2.27.26-3.68.81-3.68,2.49a2,2,0,0,0,2.14,2.1,2.7,2.7,0,0,0,1.76-.64v.45l.05.08c.58,0,.68,0,1.27-.05l.06-.06a23.66,23.66,0,0,1-.08-2.52Zm-1.3,2.41a2,2,0,0,1-1.37.55,1.11,1.11,0,0,1-1.2-1.15c0-1.12,1.18-1.3,2.46-1.49l.11,0Z"/><path class="cls-3" d="M194,305.07c-.59,0-.73,0-1.41,0l-.08.09c0,.47.08,1.22.08,2.19v.94a3.93,3.93,0,0,1-1.3.21c-2,0-3.11-1.35-3.11-3.43a4.3,4.3,0,0,1,.69-2.52,2.76,2.76,0,0,1,2.33-1.11,4,4,0,0,1,2.32.76l.1,0c.05-.58.08-.78.14-1.22l-.06-.09a5.86,5.86,0,0,0-2.57-.54,4.21,4.21,0,0,0-3.28,1.34,5,5,0,0,0-1.2,3.41,4.19,4.19,0,0,0,4.64,4.52,7,7,0,0,0,2.67-.52l.08-.09c0-.38,0-.6,0-1.12,0-.76,0-1.76.06-2.76Z"/><path class="cls-3" d="M198.48,302.74a1.57,1.57,0,0,0-1.54,1.21l.06-1.07-.08-.08-1.31.25-.08.09a27,27,0,0,1,.11,3.26c0,1.17,0,2,0,3l.06.08c.6,0,.74,0,1.34,0l.06-.09c-.05-.71-.09-1.45-.09-2.87s0-1.86.52-2.23a.94.94,0,0,1,.53-.16,1.29,1.29,0,0,1,.5.11l.09-.06c.09-.55.11-.68.24-1.29l-.05-.08A1.29,1.29,0,0,0,198.48,302.74Z"/><path class="cls-3" d="M202.7,302.73a3.15,3.15,0,0,0-2.34.88,3.6,3.6,0,0,0-.87,2.56,3.68,3.68,0,0,0,.87,2.57,3,3,0,0,0,2.25.84,2.93,2.93,0,0,0,2.18-.77,3,3,0,0,0,.82-1.52,5.44,5.44,0,0,0,.11-1.22,3.77,3.77,0,0,0-.77-2.43A3,3,0,0,0,202.7,302.73Zm1.36,5.06a1.53,1.53,0,0,1-1.44.84,1.69,1.69,0,0,1-.74-.16c-1-.5-1-1.78-1-2.28a3.34,3.34,0,0,1,.38-1.78,1.56,1.56,0,0,1,1.39-.73,1.47,1.47,0,0,1,1.35.72,4,4,0,0,1,.37,1.71A3.87,3.87,0,0,1,204.06,307.79Z"/><path class="cls-3" d="M212.7,305.8c0-1,0-1.91,0-2.87l-.08-.09c-.58,0-.72,0-1.3.05l-.08.09a26,26,0,0,1,.09,2.92c0,.73,0,1.31,0,2a2.51,2.51,0,0,1-1.57.66c-1.27,0-1.3-1.13-1.31-1.66s0-.86,0-1.2l.05-2.76-.08-.09c-.59.05-.71.05-1.3.06l-.06.09c0,.68,0,.88.06,2.68v.78a3.29,3.29,0,0,0,.82,2.71,2.35,2.35,0,0,0,1.44.43,3.22,3.22,0,0,0,2-.72v.53l.08.08c.58,0,.68,0,1.29-.05l.05-.08c0-.18,0-.35,0-.53C212.73,308.28,212.7,307.35,212.7,305.8Z"/><path class="cls-3" d="M217.7,302.73a2.83,2.83,0,0,0-1.84.68l0-.53-.09-.08c-.57.11-.71.15-1.32.25l-.06.08a38.19,38.19,0,0,1,.16,4.27c0,.74,0,1.49,0,2.23,0,1.29,0,2.08-.05,2.85l.06.08,1.32,0,.08-.08c-.06-1.18-.09-1.51-.1-3,.18,0,.33,0,.57,0,2.66,0,4-1.68,4-3.63A2.82,2.82,0,0,0,217.7,302.73Zm-1.29,5.78c-.21,0-.37,0-.53,0,0-.73,0-1.47,0-2.22s0-1.29,0-1.94a2.46,2.46,0,0,1,1.45-.53c1,0,1.7.81,1.7,2.12A2.43,2.43,0,0,1,216.41,308.51Z"/><path class="cls-3" d="M37.06,290.39v2c0,1.09-.43,1.59-1.37,1.59H34.62v0H28.79v0h-.59a2.17,2.17,0,0,1-1.46-.73l-1.13-1.19-.46-.49,3.39-2.44v-.07a2.24,2.24,0,0,0-1-1.76,4.13,4.13,0,0,0-2.65-.9,4,4,0,0,0-2.62.9,2.24,2.24,0,0,0-1.06,1.76v.06l0,0c.93.93,1.68,1.68,2.18,2.21l-1.54,1.09a2.52,2.52,0,0,0-1.19,2.34,3.6,3.6,0,0,0,1.46,2.78,5.33,5.33,0,0,0,2.62.94h.09l.42-.69-.22,0A4.34,4.34,0,0,1,23,297a2.58,2.58,0,0,1-1.05-2.26,1.71,1.71,0,0,1,.81-1.4l1.51-1.1c1.45,1.47,2,2,2.11,2.08a2.76,2.76,0,0,0,1.77.74h8a2.13,2.13,0,0,0,2.22-2.37V287.9l-1.53.38Zm-12.73.34L22.61,289a1.23,1.23,0,0,1,.58-.9,2.72,2.72,0,0,1,1.67-.5,3,3,0,0,1,1.64.47,1.19,1.19,0,0,1,.57.73l-2.73,1.93Z"/><path class="cls-3" d="M36.52,286.06a.76.76,0,0,0,.85-.82.86.86,0,0,0-.85-.87.85.85,0,1,0,0,1.69Z"/><path class="cls-3" d="M63.51,286.8v5.6c0,1.09-.43,1.59-1.37,1.59H60.57v0H56.42v0H56a1.32,1.32,0,0,1-1-.33,1.71,1.71,0,0,1-.37-1.26v-1.76L54.8,289l-.11,0a6,6,0,0,0-2-.31c-2.31,0-3.78,1.56-3.85,4.07,0,.89-.44,1.31-1.3,1.31h-.27v0H43.08v0h-.42c-.9,0-1.33-.52-1.33-1.59v-8.06l-1.53.36.27,2v6c0,1.55.76,2.37,2.21,2.37h5.67a2.13,2.13,0,0,0,1.26-.38,2.19,2.19,0,0,0,2.07,1.38A3.51,3.51,0,0,0,54,294.43a2.37,2.37,0,0,0,1.58.63h6.91a2.13,2.13,0,0,0,2.22-2.37v-8.37l-1.52.38Zm-10.13,3.94V294a2.22,2.22,0,0,1-1.74.9c-.92,0-1.54-1-1.54-2.54a3.52,3.52,0,0,1,.52-2.06,1.89,1.89,0,0,1,1.68-.85,3.7,3.7,0,0,1,.93.15Z"/><polygon class="cls-3" points="66.2 284.5 66.44 286.43 66.44 295.06 67.7 295.06 67.7 286.44 67.86 284.36 66.2 284.5"/><path class="cls-3" d="M100.93,290.47c-1.28-2-2.47-2.92-3.63-2.92-1.35,0-2.35,1.27-2.5,3.16v.18l1.26-.18-.06-.17a2.9,2.9,0,0,1-.17-.89c0-.69.37-1.16.92-1.16.77,0,1.66.75,2.65,2.24A12.17,12.17,0,0,1,101,294H90.58v0h-.42a1.32,1.32,0,0,1-1-.34,1.71,1.71,0,0,1-.37-1.26v-1.76L89,289l-.11,0a6,6,0,0,0-2-.31c-2.31,0-3.78,1.56-3.85,4.07,0,.89-.44,1.31-1.3,1.31h-.27v0H78.92v0H77.44v-2.5a4.22,4.22,0,0,0-.87-2.7,2.76,2.76,0,0,0-2.24-1.07H74.2l-.14,1.34.24-.13a1.24,1.24,0,0,1,.59-.16c.76,0,1.29,1,1.29,2.43v2.61l0,.17H71.92l-.24,1.07H82.11a2.13,2.13,0,0,0,1.26-.38,2.19,2.19,0,0,0,2.07,1.38,3.51,3.51,0,0,0,2.77-1.63,2.37,2.37,0,0,0,1.58.63h13v-.16A9.74,9.74,0,0,0,100.93,290.47Zm-13.37.27V294a2.22,2.22,0,0,1-1.74.9c-.92,0-1.54-1-1.54-2.54a3.52,3.52,0,0,1,.52-2.06,1.88,1.88,0,0,1,1.68-.85,3.71,3.71,0,0,1,.93.15Z"/><path class="cls-3" d="M147.85,288a6.1,6.1,0,0,0-2-.33,3.68,3.68,0,0,0-2.81,1.14,4.3,4.3,0,0,0-1,3,4.09,4.09,0,0,0,.57,2.24H141v0h-2.61a13.77,13.77,0,0,0-1.91-3.86c-1.19-1.72-2.3-2.56-3.39-2.56-1.36,0-2.37,1.27-2.51,3.16v.18l1.27-.18-.06-.17a2.93,2.93,0,0,1-.17-.89c0-.69.36-1.16.9-1.16.78,0,1.68.75,2.66,2.24a12.76,12.76,0,0,1,1.62,3.23h-7.14v0h-2.48v0h-.42a1.32,1.32,0,0,1-1-.34,1.71,1.71,0,0,1-.37-1.26v-1.76l.15-1.68-.11,0a6,6,0,0,0-2-.31c-2.31,0-3.78,1.56-3.85,4.07,0,.89-.44,1.31-1.3,1.31H118v0h-4.16v0h-1.48v-2.5a4.21,4.21,0,0,0-.87-2.7,2.76,2.76,0,0,0-2.24-1.07h-.13l-.14,1.34.24-.13a1.26,1.26,0,0,1,.59-.16c.76,0,1.29,1,1.29,2.43v2.61l0,.17h-4.25l-.24,1.07h12.11a2.13,2.13,0,0,0,1.26-.38,2.19,2.19,0,0,0,2.07,1.38,3.51,3.51,0,0,0,2.77-1.63,2.37,2.37,0,0,0,1.58.63h18.06c2.24,0,3.38-1,3.38-2.92v-2.47L148,288Zm-1.16,3.55c0,1.68-.62,2.49-1.88,2.49-.91,0-1.53-1-1.53-2.56a3.67,3.67,0,0,1,.51-2.08,1.89,1.89,0,0,1,1.68-.85,3.7,3.7,0,0,1,.93.15l.15,1.13A13.78,13.78,0,0,1,146.69,291.5Zm-23.63-2a3.71,3.71,0,0,1,.93.15l.15,1.11V294a2.22,2.22,0,0,1-1.74.9c-.92,0-1.54-1-1.54-2.54a3.52,3.52,0,0,1,.52-2.06A1.88,1.88,0,0,1,123.05,289.49Z"/><path class="cls-3" d="M159.21,285.64a.75.75,0,0,0,.84-.84.85.85,0,0,0-.84-.89.86.86,0,0,0,0,1.73Z"/><path class="cls-3" d="M157.09,285.64a.76.76,0,0,0,.85-.84.86.86,0,0,0-.85-.89.86.86,0,1,0,0,1.73Z"/><path class="cls-3" d="M171,294h-.82a1.78,1.78,0,0,1-1.33-.57,2.33,2.33,0,0,1-.6-1.72c0-1.71.85-2.82,2.16-2.82a3,3,0,0,1,1.7.57l.12.08.41-.62-.11-.08a4,4,0,0,0-2.52-1,2.71,2.71,0,0,0-2.17,1.07,4,4,0,0,0-.85,2.64,3.42,3.42,0,0,0,.84,2.41h-2v0h-4.16v0h-.11c-.91,0-1.35-.52-1.35-1.58v-5.8l-.41.1-1,.25-.12,0,.08.85H158a3.6,3.6,0,0,0-2.62,1,3.51,3.51,0,0,0-1,2.58c0,2,1,3.29,2.6,3.29a4.18,4.18,0,0,0,2.12-.57,2,2,0,0,0,.6.54,2.73,2.73,0,0,0,1.43.39h11.92l-.17-1.31Zm-12.08-.68a5,5,0,0,1-1.53.26c-1.11,0-1.66-.8-1.67-2.45a2.44,2.44,0,0,1,.65-1.75,2.1,2.1,0,0,1,1.54-.71l.93,0Z"/><path class="cls-3" d="M202.54,296.91a.86.86,0,0,0,0,1.73.76.76,0,0,0,.84-.85A.87.87,0,0,0,202.54,296.91Z"/><path class="cls-3" d="M220.11,288l-.11,0a6.1,6.1,0,0,0-2-.33,3.68,3.68,0,0,0-2.81,1.14,4.3,4.3,0,0,0-1,3,4.09,4.09,0,0,0,.57,2.24h-1.55v0h-6a13.74,13.74,0,0,0-1.91-3.86c-1.19-1.72-2.3-2.56-3.39-2.56-1.36,0-2.37,1.27-2.51,3.16v.18l1.27-.18-.06-.17a2.92,2.92,0,0,1-.17-.89c0-.69.36-1.16.9-1.16.78,0,1.68.75,2.66,2.24A12.76,12.76,0,0,1,205.6,294h-7.14v0H196v0h-.42a1.32,1.32,0,0,1-1-.33,1.71,1.71,0,0,1-.37-1.26v-1.76l.16-1.68-.11,0a6,6,0,0,0-2-.31c-2.31,0-3.78,1.56-3.85,4.07,0,.89-.44,1.31-1.3,1.31h-.27v0h-4.16v0h-2.52v-6.05h-2.19a3.39,3.39,0,0,0-2.62,1.11,4.25,4.25,0,0,0-1,2.91,3.33,3.33,0,0,0,.78,2.32,2.61,2.61,0,0,0,2,.77h1.76a3.34,3.34,0,0,1-2.18,2.87l-.17.06.41.66.11,0a3.91,3.91,0,0,0,3.12-3.57h7.4a2.13,2.13,0,0,0,1.26-.38,2.19,2.19,0,0,0,2.07,1.38,3.51,3.51,0,0,0,2.77-1.63,2.37,2.37,0,0,0,1.58.63h21.41c2.24,0,3.38-1,3.38-2.92v-2.47Zm-2.49.52a3.71,3.71,0,0,1,.93.15l.15,1.13h0a13.75,13.75,0,0,1,.14,1.72c0,1.68-.62,2.49-1.88,2.49-.91,0-1.53-1-1.53-2.56a3.67,3.67,0,0,1,.51-2.08A1.88,1.88,0,0,1,217.62,288.51Zm-24.68,2.24V294a2.22,2.22,0,0,1-1.74.9c-.92,0-1.54-1-1.54-2.54a3.52,3.52,0,0,1,.52-2.06,1.89,1.89,0,0,1,1.68-.85,3.7,3.7,0,0,1,.93.15Zm-14.12-2V294h-1.53c-1.13,0-1.67-.77-1.67-2.35,0-1.84.8-2.9,2.19-2.9Z"/></svg>